#!OML:ASF I:\Actors\actors\Patient Classification 1\Patient 1\Session 1\Subject1.ASF
:FULLY-SPECIFIED
:DEGREES
394
root 0.3675 17.5352 7.95816 11.6343 -2.09477 -8.73417
lowerback 1.75049 -0.344335 9.40658
upperback -8.34558 0.504507 3.98134
thorax -9.91581 -0.310539 -1.02502
lowerneck -12.0894 -1.63399 0.438132
upperneck 26.1835 -2.2506 -0.825588
head 10.3338 -1.10298 -0.647747
rclavicle -5.11871e-015 -1.19271e-015
rhumerus -10.5873 32.4079 -91.1681
rradius 66.9061
rwrist 44.8857
rhand -20.1819 -60.794
rfingers 7.12502
rthumb 6.16424 90.6843
lclavicle -5.11871e-015 -1.19271e-015
lhumerus -7.52331 -20.0901 89.6186
lradius 52.0802
lwrist -39.8688
lhand -43.0145 -20.6694
lfingers 7.12502
lthumb -15.8723 8.70008
rfemur -10.2511 22.0095 22.688
rtibia 6.56436
rfoot -12.5333 -25.8875
rtoes 5.83869
lfemur -3.83409 -29.8496 -7.9279
ltibia -1.2844
lfoot -13.5691 40.9141
ltoes 2.35661
395
root 0.391476 17.5262 7.95074 11.671 -1.81081 -9.28101
lowerback 1.77111 -0.211968 9.64869
upperback -8.41551 0.708596 3.96353
thorax -9.99364 -0.234735 -1.19552
lowerneck -11.9645 -1.87462 0.272374
upperneck 26.1104 -2.67158 -0.38184
head 10.2897 -1.26132 -0.511765
rclavicle 5.46658e-016 3.10104e-014
rhumerus -11.6012 31.8991 -91.7053
rradius 67.4116
rwrist 45.6765
rhand -20.1863 -61.0666
rfingers 7.12502
rthumb 6.15993 90.957
lclavicle 5.46658e-016 3.10104e-014
lhumerus -7.11404 -20.3464 89.9576
lradius 50.8537
lwrist -40.4129
lhand -43.7435 -21.444
lfingers 7.12502
lthumb -16.5743 7.86817
rfemur -10.397 21.4189 23.2757
rtibia 6.77606
rfoot -12.4874 -25.5001
rtoes 5.46308
lfemur -3.96128 -29.7156 -7.30071
ltibia -1.32118
lfoot -13.215 40.6496
ltoes 1.85309
396
root 0.39865 17.535 7.96954 11.179 -0.727471 -9.16798
lowerback 1.7517 -0.472027 9.13681
upperback -8.31836 0.30635 3.86405
thorax -9.89586 -0.388466 -0.983916
lowerneck -11.8491 -2.05238 0.145109
upperneck 26.0337 -3.01464 0.0710438
head 10.2489 -1.37968 -0.369822
rclavicle 0 -4.45278e-014
rhumerus -12.5442 31.5298 -92.353
rradius 67.5532
rwrist 46.111
rhand -19.854 -61.5129
rfingers 7.12502
rthumb 6.48079 91.3937
lclavicle 0 -4.45278e-014
lhumerus -6.9556 -20.4395 90.2582
lradius 50.1637
lwrist -40.8908
lhand -44.4103 -21.8156
lfingers 7.12502
lthumb -17.2161 7.44173
rfemur -9.28019 21.8008 23.5101
rtibia 6.21295
rfoot -13.0324 -26.8886
rtoes 6.46261
lfemur -3.65263 -29.9217 -7.49845
ltibia -1.39508
lfoot -12.5318 39.8161
ltoes 0.93372
397
root 0.414239 17.5334 7.97427 11.1114 -0.385524 -9.23929
lowerback 1.64259 -0.48377 8.80451
upperback -8.32691 0.249246 3.78765
thorax -9.83565 -0.391898 -0.879136
lowerneck -11.7235 -2.2503 -0.0810878
upperneck 25.8547 -3.33841 0.4399
head 10.1712 -1.51019 -0.237548
rclavicle -1.11568e-014 8.74653e-015
rhumerus -13.2941 31.1851 -93.0157
rradius 67.4127
rwrist 46.2879
rhand -18.7381 -61.8678
rfingers 7.12502
rthumb 7.55797 91.7127
lclavicle -1.11568e-014 8.74653e-015
lhumerus -6.97278 -20.4451 90.5258
lradius 49.8555
lwrist -41.4401
lhand -45.2079 -21.7518
lfingers 7.12502
lthumb -17.9837 7.43676
rfemur -9.09896 21.8344 23.6013
rtibia 6.12485
rfoot -13.1825 -27.2607
rtoes 6.50838
lfemur -3.61502 -30.2618 -7.47595
ltibia -1.47197
lfoot -12.4215 39.8281
ltoes 1.04696
398
root 0.430146 17.5321 7.9777 11.0392 -0.206929 -9.35456
lowerback 1.56471 -0.431176 8.52065
upperback -8.28701 0.283856 3.72646
thorax -9.73317 -0.351581 -0.795026
lowerneck -11.6564 -2.4884 -0.346558
upperneck 25.6385 -3.68968 0.738464
head 10.0933 -1.66569 -0.127441
rclavicle -3.62782e-015 -1.03368e-014
rhumerus -13.725 30.9 -93.6023
rradius 67.1919
rwrist 45.7499
rhand -17.1159 -61.9291
rfingers 7.12502
rthumb 9.12354 91.7118
lclavicle -3.62782e-015 -1.03368e-014
lhumerus -7.04548 -20.4903 90.8096
lradius 49.8519
lwrist -41.9915
lhand -46.0073 -21.4207
lfingers 7.12502
lthumb -18.7527 7.69538
rfemur -8.96042 21.8049 23.7346
rtibia 6.08411
rfoot -13.2106 -27.4317
rtoes 6.32322
lfemur -3.50003 -30.4063 -7.44644
ltibia -1.57606
lfoot -12.3161 39.799
ltoes 1.09233
399
root 0.445533 17.5353 7.98117 11.0304 -0.152158 -9.0716
lowerback 1.41893 -0.348848 7.82921
upperback -8.26784 0.316262 3.54033
thorax -9.60419 -0.286981 -0.619916
lowerneck -11.609 -2.69972 -0.433271
upperneck 25.5483 -4.03297 0.986996
head 10.0619 -1.80512 -0.065615
rclavicle 4.47266e-015 -2.18663e-015
rhumerus -13.8922 30.7306 -94.1852
rradius 67.0969
rwrist 44.4868
rhand -15.7155 -61.8723
rfingers 7.12502
rthumb 10.4746 91.5914
lclavicle 4.47266e-015 -2.18663e-015
lhumerus -7.23835 -20.5753 91.0881
lradius 50.0545
lwrist -42.4703
lhand -46.5095 -21.3793
lfingers 7.12502
lthumb -19.2357 7.68937
rfemur -8.95723 21.8341 23.3301
rtibia 6.08944
rfoot -13.3003 -27.5948
rtoes 6.31078
lfemur -3.52798 -30.5293 -7.84665
ltibia -1.54506
lfoot -12.4484 39.7841
ltoes 1.60738
400
root 0.456181 17.5427 7.98477 11.1137 -0.324152 -8.40519
lowerback 1.18588 -0.232372 6.65741
upperback -8.28479 0.353488 3.26135
thorax -9.45674 -0.1886 -0.277198
lowerneck -11.459 -2.86198 -0.47081
upperneck 25.4548 -4.31495 1.2269
head 10.0089 -1.91381 -0.00597827
rclavicle -1.51325e-014 2.8625e-014
rhumerus -13.8248 30.7821 -94.7659
rradius 67.143
rwrist 43.0239
rhand -15.6024 -61.6979
rfingers 7.12502
rthumb 10.5837 91.4114
lclavicle -1.51325e-014 2.8625e-014
lhumerus -7.47005 -20.6651 91.3361
lradius 50.2681
lwrist -42.7673
lhand -46.7589 -21.5132
lfingers 7.12502
lthumb -19.4755 7.53148
rfemur -9.14246 22.0664 22.3902
rtibia 6.16356
rfoot -13.4425 -27.7878
rtoes 6.52961
lfemur -3.67953 -30.7367 -8.6578
ltibia -1.39583
lfoot -12.7933 39.9885
ltoes 2.43302
401
root 0.47118 17.5462 7.98404 11.1733 -0.533791 -8.12632
lowerback 1.05329 -0.0985895 6.00264
upperback -8.29657 0.46691 3.06746
thorax -9.37328 -0.09036 -0.133014
lowerneck -11.2971 -3.00743 -0.605107
upperneck 25.3712 -4.58527 1.59464
head 9.96412 -2.01225 0.116191
rclavicle 3.29237e-015 -5.57591e-014
rhumerus -13.8363 30.8103 -95.4941
rradius 67.916
rwrist 43.2203
rhand -13.6968 -62.1451
rfingers 7.12502
rthumb 12.4215 91.756
lclavicle 3.29237e-015 -5.57591e-014
lhumerus -7.67589 -20.8122 91.5527
lradius 50.5079
lwrist -42.9482
lhand -46.8988 -21.4787
lfingers 7.12502
lthumb -19.61 7.55223
rfemur -9.32334 22.2091 21.9187
rtibia 6.27051
rfoot -13.4721 -27.7994
rtoes 6.42942
lfemur -3.7711 -30.7804 -9.03924
ltibia -1.28284
lfoot -12.9984 40.14
ltoes 2.954
402
root 0.492858 17.5451 7.98061 11.1896 -0.715502 -8.22097
lowerback 1.04784 0.0490224 5.89931
upperback -8.30413 0.649317 2.93331
thorax -9.36643 0.00086768 -0.235204
lowerneck -11.1828 -3.18634 -0.671832
upperneck 25.3002 -4.89154 1.8607
head 9.93047 -2.13236 0.186225
rclavicle -2.72149e-014 3.97072e-014
rhumerus -14.1168 29.658 -96.462
rradius 69.294
rwrist 45.5778
rhand -14.628 -61.5334
rfingers 7.12502
rthumb 11.5236 91.1966
lclavicle -2.72149e-014 3.97072e-014
lhumerus -7.82286 -21.0292 91.775
lradius 50.8085
lwrist -42.8916
lhand -46.7829 -21.2917
lfingers 7.12502
lthumb -19.4985 7.75064
rfemur -9.43015 22.1971 21.9093
rtibia 6.34627
rfoot -13.3815 -27.6375
rtoes 6.06598
lfemur -3.77138 -30.7586 -9.0327
ltibia -1.2245
lfoot -13.0888 40.2512
ltoes 3.25776
403
root 0.514013 17.5449 7.97582 11.2188 -1.11047 -8.27209
lowerback 1.10881 0.247526 5.68857
upperback -8.3075 0.900428 2.81819
thorax -9.39099 0.134199 -0.263814
lowerneck -11.1351 -3.3507 -0.744228
upperneck 25.2727 -5.16235 2.06918
head 9.92422 -2.24202 0.239821
rclavicle 5.38893e-015 6.41081e-015
rhumerus -13.2312 30.2377 -96.8104
rradius 70.1025
rwrist 46.7068
rhand -15.0146 -61.89
rfingers 7.12502
rthumb 11.1506 91.5737
lclavicle 5.38893e-015 6.41081e-015
lhumerus -7.85024 -21.2453 92.0278
lradius 51.0549
lwrist -42.478
lhand -46.5397 -20.9909
lfingers 7.12502
lthumb -19.2647 8.07488
rfemur -9.59623 22.1757 21.8186
rtibia 6.4549
rfoot -13.2141 -27.2827
rtoes 5.78536
lfemur -3.66861 -30.798 -9.1505
ltibia -1.22085
lfoot -13.2278 40.591
ltoes 3.63905
404
root 0.532235 17.5481 7.96835 11.2554 -1.76831 -8.29897
lowerback 1.22854 0.516157 5.35673
upperback -8.34447 1.24577 2.71747
thorax -9.48582 0.321824 -0.218768
lowerneck -10.9618 -3.46243 -0.857708
upperneck 25.2438 -5.37508 2.37506
head 9.89749 -2.31939 0.343632
rclavicle -4.23039e-015 -3.50109e-014
rhumerus -11.5683 32.5853 -96.4521
rradius 70.6892
rwrist 45.9031
rhand -15.8002 -63.5173
rfingers 7.12502
rthumb 10.3929 93.2405
lclavicle -4.23039e-015 -3.50109e-014
lhumerus -7.9249 -21.4318 92.2785
lradius 51.1354
lwrist -42.187
lhand -46.417 -20.8736
lfingers 7.12502
lthumb -19.1468 8.20388
rfemur -9.8175 22.1922 21.6819
rtibia 6.59494
rfoot -12.98 -26.7093
rtoes 5.52921
lfemur -3.44596 -30.656 -9.35792
ltibia -1.30739
lfoot -13.2846 41.023
ltoes 3.79242
405
root 0.54683 17.5537 7.96134 11.2324 -2.56869 -8.35354
lowerback 1.40878 0.85551 5.01524
upperback -8.40945 1.68882 2.58896
thorax -9.64682 0.555364 -0.208899
lowerneck -10.6724 -3.60879 -0.752084
upperneck 25.1903 -5.63319 2.4924
head 9.82867 -2.42073 0.342438
rclavicle -1.07282e-014 6.75868e-015
rhumerus -10.2099 33.2286 -96.3828
rradius 71.4844
rwrist 46.6559
rhand -15.2718 -64.3522
rfingers 7.12502
rthumb 10.9026 94.0491
lclavicle -1.07282e-014 6.75868e-015
lhumerus -8.05308 -21.6524 92.5328
lradius 51.0086
lwrist -42.2664
lhand -46.2877 -21.0664
lfingers 7.12502
lthumb -19.0224 8.02337
rfemur -9.92795 22.3253 21.6103
rtibia 6.64608
rfoot -12.653 -26.1155
rtoes 4.88667
lfemur -3.06271 -30.3314 -9.59431
ltibia -1.46774
lfoot -13.4445 41.4117
ltoes 4.10235
